<?xml version="1.0" encoding="UTF-8"?> <svg xmlns="http://www.w3.org/2000/svg" id="Livello_2" data-name="Livello 2" version="1.1" viewBox="0 0 2420.2 1091.3"><defs><style> .cls-1 { fill: #005438; stroke-width: 0px; } </style></defs><g id="Livello_1-2" data-name="Livello 1-2"><g><path class="cls-1" d="M123.4,178.1c-2.4-20.6,1.8-38.7,10.6-56.2,6-12.1,14.2-18.4,27.6-18.2,16.6.3,33.1,0,49.7.1,17.4.2,25,5.6,29.2,22.9,3.4,13.8,5.1,27.9,7.3,42,.9,5.5,2.6,8.6,8.9,8.8,27.9,1.2,55.8,2.9,83.7,4.4,1.4,0,2.8-.4,4.6-.7,1-12.8,2-25.4,2.8-38,1-15,8.1-24.5,22-30.6,19.2-8.5,39-10.8,59.4-9.4,13.2.9,20,7.6,23.2,21.5,3.6,15.7,7.4,31.3,10.3,47.1,1.4,7.9,5,9.1,12.1,8.5,22-2,44-3.5,66.1-4.7,6.3-.3,8.7-2.6,8.1-8.8-.3-3,0-6,0-9,0-26.6,4.7-33.4,30.9-36.8,22.2-2.9,44.7-3.7,67.2-4.2,13.5-.3,20.2,6.2,22.1,20.1,1.7,11.8,2.4,23.8,3.2,35.8.4,6.5,3.3,9.4,9.6,9.6,18,.7,36,1.4,54,2.3,5.9.3,7.7-2.5,7.6-8.1-.2-10.5-.3-21,.2-31.5.8-14.2,7.6-21.4,21.5-22,22.4-.9,44.9-1.3,67.3-1,16.9.2,23.6,7.8,24.3,25.3.6,16.5,1.7,32.9,1.6,49.4-.1,9.8,4,11.3,12.5,11.9,33.7,2.5,67.4,5.7,101.1,9.2,15,1.6,23.5,12,26.6,27.1,9.2,45,8,89.9,2.6,135.3-2.8,23.7-2.4,47.9-3.3,71.8-3,86.1-5.7,172.2-9,258.3-1.2,32-13.2,61.6-25.4,90.3-15.8,37.4-34.8,73.5-52.8,110-2.9,6-6.8,11.8-11.3,16.5-42.9,44.4-86.7,87.6-142.2,116.4-30.4,15.7-61.5,26.6-96.1,25.8-22.5-.5-44.9-.2-67.4,0-4.3,0-9.1.4-12.8,2.3-29.2,15.5-60.1,21.2-92.9,19.1-30.2-1.9-60-4.9-88.6-16.8-13.2-5.5-27.5-8.5-41.5-11.6-50-11.1-93.8-37.4-139-59.8-10-4.9-17.2-15.2-26.7-21.5-56.4-37.3-86.1-95.6-113-154.4-25.5-55.6-45.5-113.7-66.9-171.2C.3,621.9-1.9,586.5,1.3,550.5c4.8-55.1,8.5-110.4,13.4-165.5,3.6-41.7.4-82.9-5.4-124.3-2.7-19.5-1.5-39.6-1.1-59.5.3-14.6,8.5-21.9,23.8-22.2,26.9-.4,53.8-.1,80.7-.2,2.9,0,5.8-.4,10.7-.8h0ZM174.9,207.9v1.9H49c-5.2,0-10.8-.9-10.5,7.4.7,16.1.9,32.2,2,48.2,1.7,24.6,6.8,49.4,5.6,73.8-3.5,74-8.8,147.9-14.5,221.7-2.4,31.3,1.3,61.2,12.2,90.4,13,34.6,26.3,69.2,39.2,103.9,22.9,62,49.6,122,94.6,171,17.2,18.7,36.3,37.4,58.1,49.5,42.5,23.6,85.5,47.2,133.8,57.7,14,3.1,28.3,6.2,41.5,11.8,33.3,13.9,68.3,15.8,103.2,14.2,15.9-.8,31.6-8.5,47.3-13.3,7.2-2.2,14.1-6.8,21.2-7.1,21-1,42.1-1.9,62.9,0,54.5,4.7,99.7-18.7,140.9-49.7,31.8-23.9,59.5-53.4,88.8-80.8,4.5-4.2,7.9-10,10.6-15.6,16.8-34.2,34.6-67.9,49.4-102.9,12.5-29.5,23.6-59.7,24.6-92.8,2.2-77.5,4.8-155,7.7-232.5,1.4-35.9,3.4-71.8,6.1-107.6,2.5-33.4,3.5-66.5-3.7-99.5-1.4-6.6-3.7-9.8-10.3-10.4-20.1-2-40.2-5.2-60.4-6.3-33.5-1.8-67.1-1.6-98.7-15.4-20.5-9-42-9.1-63.9-9.7-49.6-1.4-99.2-5.4-148.8-6.6-35.6-.9-71.4-.8-106.9,2.1-38.5,3.1-76.5,10.9-115.4,4.9-41.9-6.4-84.1-9.7-126.6-8.3-21.3.7-42.7.1-64.1.1h0ZM434.1,186.5c-3.7-17.8-6.8-33.1-10.3-48.3-.4-1.7-3.1-4.4-4.2-4.1-12.5,2.3-25.8,3.2-37,8.6-4.4,2.1-4.3,14.5-5.5,22.3-.8,4.8-.9,9.8-.2,14.5.4,2.5,3.1,6.6,4.9,6.7,16.8.5,33.5.3,52.2.3ZM218.4,177.1c-2-12.9-3.3-24.7-6-36.1-.6-2.5-5.6-5.5-8.7-5.7-11.3-.7-22.7-.9-34,0-3.8.3-8.8,3.5-10.8,6.8-6.6,10.9-6.4,23.1-4.3,34.9h63.8ZM827.5,201.2c0-7.2.2-12.7,0-18.3-.7-20.7-11.3-30.7-31.8-30-22.2.8-25.5,5-21.2,27.5.4,2.2,2.2,5.2,4,5.8,15.7,5.1,31.5,9.8,48.9,15.1h0ZM611.6,178.1v.6h8.8c24.5,0,24.8-.2,19.7-24.8-.5-2.7-5-6.5-7.6-6.4-15,.6-29.9,1.9-44.8,3.7-2.8.3-6.8,3.4-7.5,6-4.2,15.4-.6,20.1,14.9,20.8,5.5.2,11,0,16.5,0h0Z"></path><path class="cls-1" d="M924.7,109.6c.8-11.9,1.4-21.7,2.1-31.5,1-13.6,1.7-27.1,3.1-40.7,1-9.2,5.1-16.5,15.7-16.6,8.6-.1,15.1,7.6,14.3,18.8-1.8,27.1-3.6,54.3-6.9,81.2-2.2,18.1-11.6,23.6-29.6,20.1-17.7-3.5-35.4-7.2-53-11.1-14.3-3.2-20-9.3-19-23.8.9-14.2,3.6-28.3,6.3-42.4,4-20.5,3.2-22.6-17.6-21.9-26.1.9-52.1,3.3-78.2,4.7-6.4.3-8.4,3.8-8.6,9-.4,9.9-.5,19.8-.8,29.8-.5,13.3-5.3,20.2-18.4,22.2-26.9,4.1-54,7.4-81,10.5-10.7,1.2-17.7-4.2-23-13.6-11-19.4-15.4-40.5-17-62.2-.7-9.6-4.5-12.8-14-11.3-15.6,2.5-31.3,4.3-47,6.2-7.1.9-9.8,4.3-9.9,11.7-.1,11.7-.8,23.6-2.6,35.1-2.6,16.4-10.6,22.6-27,23.3-18.4.8-36.7,2.4-55.1,2.7-17.7.3-23.5-4.6-28.2-21.7-2.6-9.6-4.8-19.3-6.4-29-1.1-6.5-3.2-9.4-10.7-8.5-22.2,2.6-44.6,4-66.9,6.5-3,.3-7.5,4.3-8.1,7.2-1.8,9.3-1.9,19-3.1,28.5-2.1,17.2-8.7,24.3-26,25.9-18.3,1.6-36.7,2.6-55.1,2.8-15,.2-21.5-6.3-22.8-21.1-1.2-13.9-2.6-27.8-2.9-41.8-.1-7.7-2.5-11-10.2-10-27.4,3.6-54.7,7.2-82,10.8-6.4.8-8.2,4.6-8.3,10.7-.1,10.6-.6,21.3-1.6,31.9-.9,9.1-5.8,16.8-14.8,18.8-21.8,5-43.7,10.3-65.9,12.5-17.9,1.8-25.1-4.9-31.1-22C7,93.7-2.3,76.7.5,57.1c.7-4.9,1.9-10.8,5.1-14,3-3,10.7-5.5,13.4-3.8,4.8,3.1,9,9.1,10.8,14.8,4.2,13.5,6.3,27.8,10.5,41.3,1.1,3.3,7.5,7.6,11,7.2,13.1-1.6,26.1-4.4,38.9-7.8,2.5-.7,5-5.9,5.3-9.2.7-10.2.4-20.6.2-30.9-.1-11.1,4.8-18.3,15.7-20.9,41.3-10,83.1-16.3,125.7-15.8,12.7.2,19.5,7.3,20.3,21.3.8,14.3,1.2,28.6,1.5,42.9.1,6.8,3.1,8.9,9.7,8.2,9.1-.9,18.5-.5,27.5-1.9,3.1-.5,7.4-4.6,7.9-7.6,1.9-11.6,2.4-23.4,3.4-35.1,1.1-13.4,6.8-18.4,20.5-19.3,28.6-2,57.2-4.1,85.6-7.1,25.4-2.7,33.2,2.5,38,27.8,1.5,7.9,3.1,15.9,4.5,23.8,1,6.1,4.3,8.9,10.6,8.4,12.5-1.1,25-1.6,37.4-3.4,2.7-.4,6.4-5.5,6.7-8.7,1.1-10.6.6-21.3,1-32,.6-14.4,5.3-22,19.3-24.3,28.6-4.7,57.4-8.5,86.3-11,14.9-1.3,21.2,5.7,23.4,20.6,1.9,13.1,3.2,26.3,5.5,39.3,1.2,6.8,3.2,13.7,6.5,19.7,1.8,3.2,7.2,6.6,10.7,6.3,17.2-1.5,34.3-4.3,51.5-6.3,6.2-.7,7.3-4.2,7.8-9.7,1-12.4,2.1-24.9,4.6-37,2.1-10.4,9.7-16.3,20.6-16.8,38.2-1.6,76.4-3.5,114.7-4.4,21.2-.5,28.1,6.8,27,28.1-.9,15.7-3.6,31.3-6.5,46.7-1.9,10-.7,16.1,11.2,17.1,9.4.8,18.7,3.4,30.3,5.7h0Z"></path><path class="cls-1" d="M710.4,801.6c-39.8,3.4-79.6,8.2-119.5,10-80.9,3.5-161.9,6.2-242.8,7.3-20.2.3-40.5-7-60.8-10-22.1-3.3-44.4-6.7-66.7-8.1-14-.9-23.8-5.4-30.5-17.8-10.1-18.7-18.2-37.7-16.2-59.7,1.1-12.2,6.4-19.4,15.3-19.4,9,0,13.8,7.2,15.6,19.2,1.9,12.9,4.6,25.8,8.8,38,1.4,4,8.1,8,13,8.8,27.1,4.7,54.4,8.6,81.6,12.4,18.2,2.5,36.4,5.9,54.6,6.4,97.7,2.5,195-5.5,292.4-11.8,29.4-11.4,60.6-2.5,90.7-8,11.9-2.2,18.9-6.6,18.7-19.5,0-6.6.8-13.2,1.5-19.8,1.2-10.6,7.3-17.2,15.7-16.6,10,.7,14.8,7.7,14.2,16.5-.9,15.7-2.2,31.7-6,46.8-1.5,6.1-9.4,13.3-15.7,15.1-20.7,5.7-43.5,5.9-64.6,10.2-.2-1.1,1,1,.8,0h0Z"></path><path class="cls-1" d="M299.1,831.9c57.4,1.8,114.8,6.6,172.1,4.6,72-2.5,144.2-2.2,215.8-13,22.3-3.4,45.6-.8,68.4-.5,10.1.2,17.1,6,21.9,14.7,7.5,13.5,15.1,27,22.3,40.6,5.6,10.6,3.9,20-3.9,24.2-7.5,4-15.9,1-22-9-6.4-10.3-12.4-20.9-17.8-31.8-3.4-7-8.1-9.6-15.7-9.1-29.3,2.2-58.6,4.3-87.9,6.1-28.7,1.7-57.3,3.4-86,4.3-52.2,1.7-104.4,4-156.7,4-53,0-105.9-2.3-158.9-4.2-9.9-.3-16.1,2.5-19.6,11.9-4.3,11.5-8.4,23.3-14.2,34.1-2.7,5-8.6,10.4-13.9,11.5-7.8,1.7-13.9-4.8-14-12.3,0-9.6,1.2-19.8,4.7-28.7,4.6-11.5,11.9-21.9,17.9-32.9,5.3-9.7,13.4-14.2,24.4-14.1,21,0,42,0,63,0,0-.2,0-.4,0-.6h0Z"></path><path class="cls-1" d="M703.7,367.7c19.5,4.2,40.2,5.7,58.4,13.3,33.5,14,54.4,40.2,57,77.3,3.1,43.5-12.4,78.4-52,100.3-10,5.5-20.1,10.8-30.2,15.9-25.4,12.8-52.5,12.6-79.9,9.8-5.4-.6-11.1-2.2-15.7-5-36.5-21.8-62-50-63.4-96.1-.9-28.8,6.7-53.4,22.7-76.4,5.7-8.2,12.4-14,23.1-14.9,4.9-.4,10-2.7,14.2-5.4,19.9-12.9,41.8-22.8,65.8-19,.2-1.3-.2,1.3,0,0h0ZM700.6,400.2c-23.7.4-23.6.6-45.1,11.7-7.4,3.8-15.7,5.9-23.3,9.6-3.7,1.8-7,4.9-9.5,8.2-18,23.2-17.7,50.3-10.1,75.7,6.8,22.9,23.9,41.8,48,47.9,19.7,5,41.1,4.2,60.5-5.2,12.2-5.9,24.3-12.2,36.1-19,24.1-14,37.2-47.1,30.9-77-5-23.8-30.4-46-56.7-49.3-10.2-1.3-20.5-1.7-30.8-2.5h0Z"></path><path class="cls-1" d="M204.6,347.8c46.9.3,81.8,23.8,107.8,60.3,23.9,33.6,13.4,98.1-18,124.4-11.8,9.9-24.2,19.2-37,27.9-32.6,22.1-79.9,18.7-111.6-4.7-47.1-34.6-55-91.6-27.6-144.1,8.6-16.4,20.1-31.6,32-46,13.5-16.2,20.4-17.4,54.4-17.9h0ZM197.5,377c-13.6-3.9-27.2,7.6-37.9,24.8-4.3,6.9-9.1,13.4-13,20.5-11.8,21.7-17.1,44.7-11.2,69.1,10.4,43.5,71.2,72.4,110,40.4,9.1-7.5,19-13.9,28-21.4,20.5-17.1,29.2-63.4,13.6-85.1-19.5-27.1-45.2-46.3-89.5-48.3h0Z"></path><path class="cls-1" d="M420.7,655.5c.3,2.8,5.1,6.9,8.1,7.2,13.2,1.2,26.5.8,39.7,1.8,10.6.8,14.2-3.2,14.3-13.7.6-42.2,1.8-84.5,2.9-126.7.1-4.8-.9-10.5,1.4-14,3.2-4.9,8.9-11.3,13.6-11.3,4.8,0,10.2,6.3,14.1,11,2,2.3,1.5,7,1.5,10.7.1,21,.5,41.9-.1,62.9-.8,26.1-2.3,52.1-4,78.2-1.7,25.4-8.7,32.3-34.2,32.8-21,.4-42-.1-62.9-.8-15.1-.5-22.8-7.1-24.1-22-7.1-79.4-18.4-158.5-13.8-238.5.3-5.5,2.2-12,5.8-15.9,2.7-3,10.8-4.9,13.5-3,4.8,3.3,10,9.7,10.3,15.1,1.2,18.7,2.4,85.6,2.4,104.3"></path><path class="cls-1" d="M466.9,756.2c-42.1,4.5-83.7-5.4-125.2-15.5-13.8-3.3-18.9-10-19.1-26.8-.4-29.4-.1-58.8-.1-88.2s0-2.9.2-4.4c1.3-10.8,7-17.1,15.4-16.9,8.4.2,14.5,6.6,14.7,17.4.5,26.5.5,52.9.1,79.4-.1,8.2,2.9,11,10.6,13.4,51.1,15.6,103.6,11.6,155.7,11.2,8.3,0,16.6-3.2,24.8-5.2,24.4-5.9,26.7-8.8,27.4-34.4.3-9.9.2-19.9,1-29.8.7-8.8,4.8-15.7,14.8-16.2,8.4-.4,15.5,6.4,15,16.9-1,21.2-3.1,42.4-5.6,63.5-1.2,10.3-8.3,16.4-17.9,20.5-35.5,15.3-72.6,17.6-111.8,15h0Z"></path><path class="cls-1" d="M698.8,417.6c7.4-.1,12.1,7.8,8.5,14.3,0,0,0,0,0,.1-2.3,4.2-4.6,8.7-5.7,13.3-3.5,14.7,7.8,26.6,22.6,23.5,5.6-1.2,10.9-4.4,15.8-7.5.2-.1.5-.3.7-.5,5.7-3.8,13.5-.5,14.7,6.3.5,2.6.8,5.2,1,7.9.8,12.3-4.2,22.8-12.7,31.5-15.7,16.1-35.1,24.3-57.4,25.3-19.5.8-35.8-10.9-44-30.7-20.5-49.5,18.7-82.6,55.5-83.5.3,0,.7,0,1,0h0ZM681.9,449.2c.2-8.1-8.7-4.4-14.1,1.7-5,5.7-11.1,14.1-11.5,20.8-1,17.2,8,34.5,20.5,39.1,1,.4,2,.7,3,.9,16.2,3.5,44.2-8.5,52.9-22.6.2-.3.1-.8.1-1.2-24.4,4.8-51.7-12.6-51-38.6h0Z"></path><path class="cls-1" d="M218.8,403.3c4.4-.3,7.4,4.4,5.2,8.3-1.6,2.8-3,5.5-4.4,8.2-5.1,10.2-3.7,18.2,4,24.6,7.9,6.6,18.4,6.8,26.8,0h0c7.8-6.4,19.6-1.3,20.3,8.8,2.1,28.8-15.4,57.5-43.8,65.1-8,2.2-17.7,2.1-25.5-.4-24.6-7.9-39.9-25.8-44.4-51.1-5.6-31.2,18.6-59.4,52.3-62.7,3.1-.3,6.2-.5,9.4-.7h0ZM198.2,427c0-.2,0-1.2-.3-1.1-15.9,6.6-25.8,24.5-22.1,39.3,5.2,21.1,25.2,37.9,42.6,35.8,14.7-1.8,31.2-19.3,31.9-33.8,0-.2-.2-.4-.4-.4-34.7,2.6-48.8-9-51.7-39.8h0Z"></path><g><path class="cls-1" d="M1650.5,384c-51.2,1.4-100.2,2.6-149.7,4-2.2,22.5-4.2,44.2-6.4,65.9-3.8,36.9-7.6,73.8-11.5,110.6-1.2,11.3-6.5,17.6-15.4,19.6-7.7,1.7-15.9-1.3-19.6-8.4-2-3.7-3.3-8.5-2.9-12.7,5.7-58.6,12.1-117.2,17.6-175.9,4.8-50.8,8.7-101.6,12.8-152.5,1.8-22.8,3.2-45.6,4.9-68.5.8-11,9.1-18.4,20-18.2,10.5.3,18.4,8.5,17.8,20-1.5,25.5-3.4,50.9-5.4,76.3-2.7,34.1-5.5,68.1-8.3,102.2,0,.7.2,1.5.6,3.4,47.9-1.3,95.8-2.5,145.7-3.9,0-13.7,0-26.8,0-39.8.3-36.3.7-72.6,1-108.9.1-14.4,6.5-22.4,18.3-22.7,12-.2,19.6,8.1,19.6,22.6,0,27.4-.3,54.7-.8,82.1-1.4,80.7-3.2,161.5,2,242.2.9,13.4,2.3,26.7,3.8,40,1.3,11.5-5.3,21.3-15.7,22.7-10.9,1.5-20.7-5.9-21.7-17.8-2.5-32-5.1-64-6.2-96-1-28.4-.2-56.8-.2-86.4h0Z"></path><path class="cls-1" d="M2359.5,361.9c15.3-.7,29.7-1.3,44.1-2.2,11.9-.7,16,1.5,16.4,9.4,1,18.1-3.1,25-15.4,25.8-14.1.9-28.2,1.5-43,2.2.9,19.1,1.3,37.4,2.6,55.7,2.5,36.2,5.5,72.3,8.3,108.5.9,11.8-6,20.1-16.7,20.5-9.1.3-14.1-3.2-15.9-13-2.8-15.8-5.5-31.7-6.6-47.6-2.7-38.8-4.4-77.7-6.6-116.5,0-1.5-.3-3.1-.5-4.5-10.4,0-20.6-.4-30.7,0-30.7,1.4-61.4,3.2-92.2,4.5-5.5.2-7.7,1.5-8.1,7.4-3.9,49-8.1,98-12.2,147-.2,2.1-.1,4.2-.4,6.3-1.3,11.5-8.7,18.2-19.3,17.5-10.1-.7-16.6-8.3-15.8-19.7,2.4-34.9,5.1-69.8,7.9-104.6,1.3-16.7,3.2-33.4,4.9-50.6-3-.3-5.8-.5-9.4-.9,1.1-11.9,2.1-23.3,3.2-35.2,3.7-.2,7.1-.5,10.6-.7,3.4-16.9,6.5-33.9,10.4-50.7,8.6-37,19.9-73,42.9-104.2,11.1-15.1,24.9-27,42.2-34.6,22.8-10.1,43.9-5.1,59.9,14.3,12.9,15.6,20.1,34.2,23.6,53.6,5.9,32.8,9.9,65.9,14.6,98.9.6,4.1.7,8.4,1.1,13.5h0ZM2323.2,363.6c.4-1.6.8-2.4.7-3.1-2.3-37-4.6-74-14.6-109.9-2.9-10.2-7.4-20.3-13-29.3-6.8-10.9-14.4-11.9-25.6-5.9-13.6,7.3-23.4,18.4-31.4,31.3-14.9,24-23,50.6-29.2,77.8-3.4,14.7-6,29.5-9.2,45.3,41.8-2.1,81.8-4.2,122.4-6.2h0Z"></path><path class="cls-1" d="M1388.8,154.8c-26.7,17-53,33.3-78.8,50.5-12.2,8.1-24.5,16.7-34.7,27.1-24.8,25-27.8,56.5-10.2,89.1,10,18.5,24,33.8,39.4,47.9,27.6,25.4,51.2,53.9,64.1,89.6,9,24.7,8.2,49.8-2.1,73.9-3.2,7.5-9.1,14.2-15.1,19.9-20.7,19.9-41.9,39.1-62.8,58.7-3,2.8-5.6,3.7-8.8,1-4.7-4.1-10.1-7.8-13.9-12.6-8.6-10.9-7.4-15.1,2.1-24.8,17.5-17.8,34.5-36.1,51.8-54.1,9.8-10.2,11.2-22.5,9.9-35.9-3.4-36.4-21.2-64.6-48-88.5-22.9-20.4-40.2-44.9-51.2-73.8-17.3-45.1-.8-106,41.1-134.3,30.1-20.3,60.6-40,90.8-60.1,3.7-2.5,6.4-2.4,9.8.3,8.3,6.6,13.3,15.4,16.7,26.2h0Z"></path><path class="cls-1" d="M1810.7,386.2c-2.8,64.6-5.8,129.2-8.3,193.8-.3,7.4-2.3,10.7-10,10.2-6.8-.5-13.7-.4-20.5,0-7.2.4-9.7-2.2-9.2-9.6,2.2-33,4.2-66.1,5.9-99.2,2.8-53.8,5.3-107.7,7.9-161.5,2.1-42.8,4.2-85.6,6.3-128.4.6-11.1,1.2-11.5,12.3-10.4,5.8.5,11.5.9,17.3,1.1,6.4.2,8.7,3.2,8.3,9.5-1.7,31.5-3.2,63-4.8,94.5-1.6,33.4-3.2,66.7-4.9,100.1-.1,0-.2,0-.3,0h0Z"></path><path class="cls-1" d="M1804.2,101c13.6.1,23.6,10.3,23.5,24.1,0,13.6-10.4,23.8-23.9,23.8-13.7,0-24.5-11-24.2-24.6.3-13.4,10.9-23.4,24.6-23.3Z"></path><path class="cls-1" d="M2086.1,188c-7.4,2-11.7,8.4-12,18.3-1.6,52.3-4.8,104.6-12.7,156.4-6.5,42.7-15.6,84.8-33.1,124.6-8.6,19.6-18.4,38.5-34.8,52.9-20.9,18.4-40.6,16.2-56.8-6.6-11.5-16.2-18.6-34.6-20.2-54.1-2.2-26.1-3-52.5-2.4-78.7.8-42.8,3.4-85.6,4.9-128.5.8-23.6,1.4-47.3,1.6-71,0-11.7-6.8-19.1-16.5-19.3-8.5-.1-15.1,6.7-16.2,16.4h0c0,.7-.1,1.4-.2,2.2,0,3.2-.1,6.3,0,9.2-1.2,38.5-5.9,152-6,165.8-.3,35.7-4.4,71.5,1.6,107.1,5.1,30.2,14,58.9,34.8,82.4,24.7,27.9,59.5,32.2,88.8,9.2,13.9-10.9,25.7-24.8,37.1-38.5,17.6-20.9,25.7-46.9,35.3-71.9,11.9-31,21.5-62.6,22.4-96.3.7-26.8,2.6-53.6,3.5-80.4,1-27.1,1.7-54.1,2.1-81.2.2-13-9.6-21.1-20.8-18.1h0Z"></path></g><g><path class="cls-1" d="M1476.4,837c-1.8,0-3.3-.6-4.7-1.8-1.3-1.2-2.1-2.7-2.3-4.7-1.3-19.3-1.9-38.8-1.9-58.5s.8-56.2,2.5-91.9c0-1.9.8-3.5,2.1-4.8,1.3-1.3,2.9-1.9,4.8-1.9h76.6c1.9,0,3.6.7,4.9,2.1,1.3,1.4,2,3,2,5s-.7,3.6-2,4.9c-1.3,1.3-3,2-4.9,2h-69.8c-1,22.7-1.7,45.3-2.1,67.8h63.9c1.9,0,3.6.8,4.9,2.1,1.3,1.3,2,3,2,4.9s-.7,3.6-2,5-3,2.1-4.9,2.1h-64c0,0,0,4.6,0,4.6,0,16.5.5,32.9,1.4,49.2h69.9c1.9,0,3.6.8,4.9,2.1,1.3,1.3,2,3,2,4.9s-.7,3.6-2,5-3,2.1-4.9,2.1h-76.5c0,0,0,0,0,0Z"></path><path class="cls-1" d="M1656.8,828.9c-1.4,0-2.8-.2-4.2-.7-3.7-1.2-6.9-4.6-9.6-10.1-.6-1.1-2.2-8-4.7-20.8-1.1-5.4-2.1-10.8-3.1-16-1.6-8.9-3.1-16.4-4.7-22.5-1.8-7.1-3.8-10.6-6.2-10.6s-3.7,1.8-6.3,5.6c-7.1,9.7-15.6,32.2-25.6,67.5-1.1,3.1-3.3,4.8-6.7,5-2,0-3.6-.7-4.9-2s-2-2.9-2.1-4.9c0-6.5-.2-14-.5-22.7-.5-13.8-.7-25-.7-33.6s.4-14.8,1.1-19.7c.4-1.9,1.3-3.4,2.7-4.3,1.4-1,2.8-1.5,4.3-1.5,2.3,0,4.1.9,5.4,2.7,1,1.3,1.5,2.7,1.5,4.2l-.2,1.2c-.6,4.9-.9,11.5-.9,19.7s0,7.7.2,12.1c6.7-18,12.7-30.1,17.9-36.3,5.2-6.2,9.8-9.2,13.9-9.2s2,.2,2.9.5c4.5,1.5,8.3,5.4,11.5,11.7s5.8,14,8,22.9c2.2,8.9,4.3,18,6.1,27.3,1.2,6,2.5,12,3.8,17.9.8,1.4,1.5,2.1,2.1,2.1s.3,0,.5-.2c4.5-2.3,9.9-8.9,16.4-19.6,2.5-4.2,4.5-7.6,5.9-10.4l1.8-3.2c1.4-2.3,3.4-3.5,6-3.5s2.3.3,3.5,1c1.7,1.1,2.7,2.2,3,3.4s.5,2.1.5,2.8c0,1.2-.3,2.3-1,3.4-.4.6-.9,1.5-1.6,2.8h0c-5.8,10.8-11.4,19.5-17,26.1-6.5,7.8-12.8,11.7-19,11.7h0Z"></path><path class="cls-1" d="M1715.2,836.6c-7.3,0-13.4-2.2-18.2-6.5-4.9-4.5-8.5-10.5-10.8-18-1.9-6.3-2.8-12.9-2.8-19.9,0-12.1,2.6-23.4,7.7-33.7,4.1-8.2,9.2-14.2,15.3-18s12.6-5.7,19.3-5.7,5.3.2,8.2.7c1.9.4,3.3,1.3,4.3,2.6.9,1.3,1.4,2.7,1.4,4.2,0,2.5-.9,4.4-2.7,5.6-1.3.9-2.7,1.4-4.2,1.4h-1.3c-1.7-.4-3.4-.5-5-.5-4.4,0-8.2,1.1-11.7,3.3-4.6,3-8.3,7.3-11,12.8-4.1,8.3-6.1,17.5-6.1,27.6s.7,10.8,2.1,15.6c1.4,4.5,3.3,8,5.9,10.7,2.6,2.6,5.8,4,9.5,4h.5c5.5-.3,10.2-1.9,13.9-4.8,3.7-2.9,6.6-6.6,8.5-11-12.4-1.4-20.4-6.7-23.8-15.9-.9-2.3-1.3-4.8-1.3-7.5,0-4.2,1-9,3.1-14.2l.4-.8c6.3-11.1,13.2-16.7,20.4-16.7s7.4,1.4,10.3,4.3c3.2,3.3,5.7,7.9,7.3,13.7,1.3,4.7,1.9,9.8,1.9,15.4s0,4.5-.3,6.9c10.6-2.1,19.8-6.3,27.5-12.6,1.4-1.1,2.9-1.6,4.5-1.6s3.9.8,5.4,2.4c1.1,1.4,1.6,2.9,1.6,4.5s-.8,3.9-2.4,5.3c-5.3,4.4-11.4,8-18.4,10.8-7,2.8-14,4.7-21.1,5.7-2.5,8.1-6.8,15-12.8,20.6s-14.1,8.8-24.2,9.4h-.8,0ZM1741.7,793.1c.3-2.7.5-5.3.5-7.8,0-4.3-.5-8.3-1.5-12-1.3-5.1-2.6-7.7-3.9-7.7-1.8,0-4.5,3-8.2,9.1-1.3,3.3-2,6.2-2,8.5,0,3.7,1.9,6.3,5.6,7.9,2.6,1.2,5.8,1.8,9.4,2h0Z"></path><path class="cls-1" d="M1842.6,828.2c-1.3,0-2.5-.1-3.7-.4-5.8-1.1-10.5-3.8-14.2-8-3.7-4.2-6.3-8.7-7.8-13.6-3.1-9.9-4.7-29.3-4.9-58.1v-22.1c-16.2,1.9-24.5,2.9-24.8,2.9-1.7,0-3.2-.5-4.4-1.5-1.8-1.4-2.7-3.3-2.7-5.6s.5-3,1.5-4.3c1.2-1.5,2.7-2.3,4.7-2.6l26-3.1c.2-13.3.6-25.5,1.1-36.5,0-2,.8-3.6,2.2-4.9s3.1-1.9,5-1.9c1.9.2,3.5.9,4.8,2.2s1.9,3,1.9,5c-.4,10.5-.8,21.9-1.1,34.4l27.3-3.2c1.6,0,3,.5,4.3,1.5,1.7,1.4,2.6,3.2,2.6,5.5s-.5,3.1-1.4,4.3c-1.1,1.5-2.7,2.3-4.7,2.6l-28.3,3.3v11.9c0,34.3,1.3,56.2,4.2,65.7.9,3,2.5,5.8,4.7,8.3s4.8,3.8,7.6,3.8c6.7,0,14.6-6.8,23.8-20.3,1.1-1.6,2.2-2.6,3.3-2.8,1.1-.2,1.9-.4,2.4-.4,1.3,0,2.6.4,3.9,1.2,1.6,1.1,2.6,2.2,2.8,3.4s.3,1.9.3,2.4c0,1.3-.4,2.6-1.1,3.9-12,17.8-23.8,26.7-35.3,26.7h0Z"></path><path class="cls-1" d="M1916.7,827.6c-7.8,0-13.7-1.8-17.9-5.6-5-4.4-7.9-9.8-8.7-16.4-.2-2-.4-4-.4-5.9,0-3,.3-6.1.9-9.2,2.6-12.4,8.1-22.3,16.6-29.8,4.8-4.2,9.9-7.4,15.2-9.5,6-2.3,11.6-3.4,16.8-3.4,7.9,0,14,1.9,18.3,5.6,3,2.6,4.6,4.9,4.7,6.8s.2,3,.2,3.2c0,3.3-1.4,6.8-4.3,10.6-7,9.1-25.1,17.5-54.4,25v.9c0,5.2,1.3,9,3.9,11.3,1.8,1.6,4.7,2.4,8.7,2.4,7.5,0,17.6-3,30.2-8.9,11.4-5.3,25.8-13.9,43-25.8,1.3-.8,2.6-1.2,4-1.2,2.3,0,4.2,1,5.7,3,.8,1.3,1.2,2.7,1.2,4,0,2.3-1,4.2-3,5.7-34,23.3-59.7,35.6-77,36.9-1.3,0-2.5.2-3.7.2h0ZM1907.4,783.5c21.7-6,35-12.1,39.8-18.3.7-.9,1-1.3,1-1.5-1.7-1.4-4.5-2.1-8.6-2.1-5.8,0-11.7,1.8-17.8,5.3-5.8,3.5-10.6,9-14.4,16.5h0Z"></path><path class="cls-1" d="M2022.9,823.7c-6,0-11.2-.7-15.4-2.1-6.2-2.1-10.8-5.2-13.8-9.5-2.2-3.2-3.5-6-3.9-8.7s-.6-4.7-.6-6.2c0-2.3.2-4.8.8-7.2,1.7-7.4,4.9-14.5,9.7-21.2,5-7,10.2-12,15.8-15.2,5.5-3.2,10.4-4.8,14.7-4.8s3.9.3,5.9.8c3.2,1.1,4.8,3.3,4.8,6.5s-.1,1.5-.4,2.3c-1.1,3.2-3.3,4.7-6.6,4.7s-1.4,0-2.1-.3-1.4-.3-2.1-.3c-2.4,0-5.1,1.1-8,3.2-3.8,2.7-7.3,6.5-10.7,11.1-3.7,5.2-6.2,10.5-7.4,15.8-.3,1.5-.5,3-.5,4.3,0,6.1,3.1,10,9.1,11.5,3.3.8,6.7,1.2,10.2,1.2s5.2-.2,8.3-.5c3.1-.3,6.9-1.3,11.6-2.9,14.4-5,25.4-13.4,32.8-25.2,1.5-2.3,3.5-3.5,6-3.5s2.4.3,3.6,1c1.7,1.1,2.7,2.2,3,3.4s.5,2.1.5,2.6c0,1.2-.3,2.4-1,3.6-5.6,9.2-13.2,16.8-22.9,22.8-6.1,3.7-12,6.5-17.8,8.5-5.7,2-10.6,3.2-14.6,3.6-3.2.3-6.3.5-9.2.5h0Z"></path><path class="cls-1" d="M2140.2,830.3c-3.1,0-6-1.3-8.5-3.8-2.3-2.4-4-6.1-4.9-11-.2-1.5-.6-5.1-.9-11-6,11.2-12.2,18.3-18.5,21.2-2.6,1.2-5.2,1.8-7.6,1.8s-5.1-.7-7.5-2.1c-2.6-1.5-4.9-3.6-6.8-6.5-5.1-7.9-7.7-14.1-7.8-18.7-.1-4.6-.2-7.2-.2-7.6,0-8.2,1.6-15.9,4.9-23,2.7-5.9,6.2-10.9,10.5-14.9,4.6-4.3,9.8-7.1,15.5-8.4,2-.5,3.9-.7,5.9-.7,5.7,0,11.6,1.9,17.4,5.7,1.5-1.5,3.2-2.2,5.1-2.2s1.3,0,2,.2c1.9.6,3.2,1.6,4,2.9.8,1.3,1.1,2.6,1.1,3.8s-.9,4.1-2.7,9.9c-1.2,6.8-1.8,15.6-1.8,26.4s0,5.9.1,8.7c.3,6.4.6,10.4.9,11.9.2,1.3.5,2.3.8,3,.8-.5,1.7-1.2,2.7-2.2,6.4-6.2,12.7-16.8,19.1-31.7,1.3-2.8,3.4-4.3,6.4-4.3s1.8.2,2.7.5c2.9,1.2,4.3,3.3,4.3,6.3s-.2,1.8-.5,2.7c-7.2,16.7-14.6,28.9-22.4,36.5-4.5,4.3-9,6.5-13.3,6.5h0ZM2099.9,813.5c.4,0,.9-.1,1.4-.4,2.1-1,4.6-3.4,7.5-7.3,5.7-7.7,11.8-21.3,18.1-40.7-4.5-3.7-8.7-5.6-12.6-5.6s-8.1,1.8-11.9,5.3c-3,2.8-5.4,6.3-7.3,10.5-2.4,5.3-3.7,10.9-3.7,17s1.9,12.8,5.6,18.7c1.2,1.6,2.1,2.4,2.8,2.4Z"></path><path class="cls-1" d="M1455.6,1029.9c-6.9,0-12.9-5.3-18.1-15.8-4.9-10.1-9.4-26.7-13.4-49.8s-7.2-53.2-9.7-90.2v-.2c0-1.9.6-3.5,1.8-4.8,1.4-1.6,3.1-2.4,5-2.4s3.5.6,4.9,1.8c1.4,1.2,2.1,2.8,2.3,4.8,4.7,69.9,12,114.9,21.7,134.8,2.5,5.2,4.4,7.8,5.5,7.8s3.7-2.9,6.6-8.8c5-10,9.7-25.8,14-47.5,4.3-21.7,7.9-48.5,10.8-80.6.2-1.6.8-3,1.9-4.2,1.4-1.4,3-2.1,4.9-2.1s3.1.5,4.5,1.6c1.4,1.1,2.2,2.6,2.5,4.6,2.6,22.5,6.4,44.9,11.3,67.5,4.9,22.5,10.6,40.7,16.8,54.4,3.6,7.7,6.7,12.1,9.4,13.2h.2c.8,0,2.3-2.2,4.6-6.8,9-18,16.2-62.7,21.7-134.1.2-2,.9-3.5,2.3-4.7,1.4-1.2,2.9-1.8,4.7-1.8s3.8.8,5.2,2.4c1.2,1.4,1.8,3,1.8,4.9v.2c-5.7,73.3-13.4,119.7-23.1,139.2-3.2,6.3-6.2,10.4-9.1,12.2-2.9,1.8-5.6,2.6-7.9,2.6s-3.2-.3-4.9-.9c-14.6-5.7-27.6-37.5-38.8-95.1-5.7,38.8-12.5,65.9-20.3,81.4-5.3,10.5-11.4,15.9-18.3,16.4h-.9Z"></path><path class="cls-1" d="M1605.2,1025.3c-3.9,0-7.3-2.3-10.3-6.8-4.4-6.8-6.9-17-7.5-30.5-.2-3-.2-6-.2-8.9,0-12.2,1-23.3,3.1-33.2.5-1.9,1.4-3.3,2.7-4.2,1.3-.9,2.7-1.3,4.1-1.3s.9,0,1.4.2c1.9.5,3.3,1.4,4.2,2.7.9,1.3,1.3,2.7,1.3,4.1s0,.9-.2,1.5c-1.8,8.7-2.7,18.9-2.7,30.5s1.8,26,5.4,31.8c0,0,.1,0,.3-.3s.4-.4.8-.7c2.7-1.8,5.7-4.7,9.1-8.6,3.4-3.9,6.9-8.2,10.6-12.8,9.2-11.8,14.8-17.8,16.5-17.8h1.7c1.7,0,3.2.6,4.7,1.8,1.4,1.4,2.2,2.5,2.2,3.5,0,1,0,1.5,0,1.6,0,1.7-.6,3.3-1.8,4.8-4.1,4.6-8.3,9.6-12.5,14.9-4,5.1-7.9,9.8-11.8,14.2-3.8,4.4-7.5,7.8-11.1,10.2s-6.9,3.6-10.1,3.6h0ZM1597.2,933.7c-2.7,0-4.8-1.2-6.2-3.7-.6-1.1-.8-2.2-.8-3.3,0-2.6,1.2-4.7,3.7-6.2.2-.2,1.1-1.2,2.7-3,0,0,0,0,0-.1,0,0,0,0,.2-.2,0,0,.1-.2.3-.3s.3-.3.5-.6c1.3-1.5,2.4-2.3,3.5-2.4,1,0,1.7-.2,1.9-.2,1.6,0,3.1.5,4.5,1.5,1.5,1.3,2.3,2.5,2.4,3.5,0,1,.2,1.6.2,1.8,0,1.6-.5,3.1-1.6,4.5,0,0-.2.2-.3.5-2,3-4.5,5.4-7.5,7.3-1.1.6-2.2.8-3.3.8h0Z"></path><path class="cls-1" d="M1722.5,1021.9c-1.4,0-2.8-.2-4.2-.7-3.7-1.2-6.9-4.6-9.6-10.1-.6-1.1-2.2-8-4.7-20.8-1.1-5.4-2.1-10.8-3.1-16-1.6-8.9-3.1-16.4-4.7-22.5-1.8-7.1-3.8-10.6-6.2-10.6s-3.7,1.8-6.3,5.6c-7.1,9.7-15.6,32.2-25.6,67.5-1.1,3.1-3.3,4.8-6.7,5-2,0-3.6-.7-4.9-2s-2-2.9-2.1-4.9c0-6.5-.2-14-.5-22.7-.5-13.8-.7-25-.7-33.6s.4-14.8,1.1-19.7c.4-1.9,1.3-3.4,2.7-4.3,1.4-1,2.8-1.5,4.3-1.5,2.3,0,4.1.9,5.4,2.7,1,1.3,1.5,2.7,1.5,4.2l-.2,1.2c-.6,4.9-.9,11.5-.9,19.7s0,7.7.2,12.1c6.7-18,12.7-30.1,17.9-36.3,5.2-6.2,9.8-9.2,13.9-9.2s2,.2,2.9.5c4.5,1.5,8.3,5.4,11.5,11.7s5.8,14,8,22.9c2.2,8.9,4.3,18,6.1,27.3,1.2,6,2.5,12,3.8,17.9.8,1.4,1.5,2.1,2.1,2.1s.3,0,.5-.2c4.5-2.3,9.9-8.9,16.4-19.6,2.5-4.2,4.5-7.6,5.9-10.4l1.8-3.2c1.4-2.3,3.4-3.5,6-3.5s2.3.3,3.5,1c1.7,1.1,2.7,2.2,3,3.4s.5,2.1.5,2.8c0,1.2-.3,2.3-1,3.4-.4.6-.9,1.5-1.6,2.8h0c-5.8,10.8-11.4,19.5-17,26.1-6.5,7.8-12.8,11.7-19,11.7h0Z"></path><path class="cls-1" d="M1773.2,1020.6c-7.8,0-13.7-1.8-17.9-5.6-5-4.4-7.9-9.8-8.7-16.4-.2-2-.4-4-.4-5.9,0-3,.3-6.1.9-9.2,2.6-12.4,8.1-22.3,16.6-29.8,4.8-4.2,9.9-7.4,15.2-9.5,6-2.3,11.6-3.4,16.8-3.4,7.9,0,14,1.9,18.3,5.6,3,2.6,4.6,4.9,4.7,6.8s.2,3,.2,3.2c0,3.3-1.4,6.8-4.3,10.6-7,9.1-25.1,17.5-54.4,25v.9c0,5.2,1.3,9,3.9,11.3,1.8,1.6,4.7,2.4,8.7,2.4,7.5,0,17.6-3,30.2-8.9,11.4-5.3,25.8-13.9,43-25.8,1.3-.8,2.6-1.2,4-1.2,2.3,0,4.2,1,5.7,3,.8,1.3,1.2,2.7,1.2,4,0,2.3-1,4.2-3,5.7-34,23.3-59.7,35.6-77,36.9-1.3,0-2.5.2-3.7.2h0ZM1763.9,976.5c21.7-6,35-12.1,39.8-18.3.7-.9,1-1.3,1-1.5-1.7-1.4-4.5-2.1-8.6-2.1-5.8,0-11.7,1.8-17.8,5.3-5.8,3.5-10.6,9-14.4,16.5h0Z"></path><path class="cls-1" d="M1951.8,1037.5c-9.7,0-18.2-1.8-25.6-5.3-7.2-3.3-12.6-7.8-16.4-13.4-3.2-4.6-4.8-9.4-4.8-14.5s.6-6.4,1.8-9.8c1.2-2.9,3.3-4.4,6.4-4.4s1.8.2,2.7.5c2.9,1.2,4.4,3.4,4.4,6.5s-.2,1.7-.5,2.5c-.6,1.5-.8,3-.8,4.5,0,2.4.8,4.7,2.3,6.9,2.3,3.4,5.9,6.2,10.8,8.5,5.6,2.6,12.1,4,19.3,4s14.5-1.7,22.2-5c8.2-3.6,15.9-9.7,23.2-18.2,5.3-6.5,7.9-14.1,7.9-22.9s-2.6-16.5-7.7-23.4c-3.8-5-9-8.7-15.5-11-3.6-1.3-7.6-2-12.1-2s-11.8,1-18.7,3.1c-3.2,1.6-6.6,3-10.1,4.4l-1.9,56.2c0,1.9-.8,3.5-2.2,4.8-1.3,1.3-3,1.9-5,1.9-2,0-3.6-.8-4.9-2.2-1.3-1.3-1.9-3-1.9-5l4-120.3c-1.9.4-3.9.8-6,1.2-.6,0-1.1.2-1.7.2-1.3,0-2.5-.3-3.6-1.1-2.1-1.4-3.2-3.4-3.2-5.9s.4-2.6,1.1-3.8c1-1.6,2.5-2.6,4.4-3,5-1.1,9.8-2,14.2-2.5.7-.2,1.3-.3,2.1-.3,4.9-.6,9.5-.8,13.8-.8s8.8.3,12.6,1c7.3,1.2,13.2,3.3,17.6,6.4,7.6,5.3,11.3,12.3,11.3,21.1s-1,8.9-3.1,13.5c-2.6,5.9-7,11.8-13,17.5,3.7.5,7.2,1.2,10.5,2.3,9.3,3.3,16.7,8.6,22.2,15.8,7.1,9.4,10.6,20,10.6,31.7s-3.7,22.9-11.1,32c-8.9,10.4-18.2,17.7-27.9,21.9-9.7,4.2-19,6.3-27.8,6.3h0ZM1941,932.8c1.6-.6,3.2-1.2,4.7-1.7,7.8-3.9,14.2-8.2,19.2-12.9,5-4.7,8.6-9.3,10.7-14,1.3-2.8,1.9-5.4,1.9-7.8,0-3.9-1.8-7-5.3-9.5-4.6-3.3-12.1-5-22.3-5s-4.7,0-7.2.2l-1.7,50.7h0Z"></path><path class="cls-1" d="M2098.3,1023.3c-3.1,0-6-1.3-8.5-3.8-2.3-2.4-4-6.1-4.9-11-.2-1.5-.6-5.1-.9-11-6,11.2-12.2,18.3-18.5,21.2-2.6,1.2-5.2,1.8-7.6,1.8s-5.1-.7-7.5-2.1c-2.6-1.5-4.8-3.6-6.8-6.5-5.1-7.9-7.7-14.1-7.8-18.7s-.2-7.2-.2-7.6c0-8.2,1.6-15.9,4.9-23,2.7-5.9,6.2-10.9,10.5-14.9,4.6-4.3,9.8-7.1,15.5-8.4,2-.5,3.9-.7,5.9-.7,5.7,0,11.6,1.9,17.4,5.7,1.5-1.5,3.2-2.2,5.1-2.2s1.3,0,2,.2c1.9.6,3.2,1.6,4,2.9.8,1.3,1.1,2.6,1.1,3.8s-.9,4.1-2.7,9.9c-1.2,6.8-1.8,15.6-1.8,26.4s0,5.9.1,8.7c.3,6.4.6,10.4.9,11.9.2,1.3.5,2.3.8,3,.8-.5,1.7-1.2,2.7-2.2,6.4-6.2,12.7-16.8,19.1-31.7,1.3-2.8,3.4-4.3,6.4-4.3s1.8.2,2.7.5c2.9,1.2,4.3,3.3,4.3,6.3s-.2,1.8-.5,2.7c-7.2,16.7-14.6,28.9-22.4,36.5-4.5,4.3-9,6.5-13.3,6.5h0ZM2057.9,1006.5c.4,0,.9-.1,1.4-.4,2.1-1,4.6-3.4,7.5-7.3,5.7-7.7,11.8-21.3,18.1-40.7-4.5-3.7-8.7-5.6-12.6-5.6s-8.1,1.8-11.9,5.3c-3,2.8-5.4,6.3-7.3,10.5-2.4,5.3-3.7,10.9-3.7,17s1.9,12.8,5.6,18.7c1.2,1.6,2.1,2.4,2.8,2.4Z"></path><path class="cls-1" d="M2129.4,1034.2c-1.9,0-3.6-.7-4.9-2.1s-2-3-2-4.9c.3-33.1.5-49.7.5-49.8l.2-23.2c0-2,.7-3.6,2.1-4.9s3-1.9,4.9-1.9c2,0,3.6.7,4.9,2.1,1.3,1.3,2,3,2,5v2.9c6.6-7.1,13.1-11.2,19.6-12.3,1.6-.3,3.3-.5,4.9-.5,3.7,0,7.5.8,11.4,2.3,5.6,2.2,11.9,5.5,18.9,10,1.7,1.1,2.6,2.2,2.9,3.4s.4,2.1.4,2.6c0,1.2-.4,2.4-1.1,3.6-1.1,1.6-2.2,2.6-3.4,2.9-1.1.3-2,.4-2.5.4-1.3,0-2.5-.3-3.7-1.1-5.7-3.6-10.3-6.2-13.9-7.8s-6.6-2.4-9.2-2.4-1.5,0-2.2.2c-5.8.9-13.3,8-22.5,21.2l-.5,47.5c-.1,2-.8,3.6-2.1,4.9-1.3,1.3-3,1.9-4.9,1.9h0Z"></path></g></g></g></svg> 