<?xml version="1.0" encoding="UTF-8"?> <svg xmlns="http://www.w3.org/2000/svg" id="Livello_2" data-name="Livello 2" viewBox="0 0 1005.71 1091.29"><defs><style> .cls-1 { fill: #005438; } </style></defs><g id="Livello_2-2" data-name="Livello 2"><g id="Livello_2-2" data-name="Livello 2-2"><g id="Livello_1-2" data-name="Livello 1-2"><g><path class="cls-1" d="M123.38,178.06c-2.41-20.63,1.85-38.73,10.58-56.21,6.02-12.07,14.17-18.44,27.65-18.16,16.57.35,33.15-.06,49.72.13,17.42.2,25.04,5.64,29.25,22.9,3.36,13.77,5.12,27.95,7.33,42,.86,5.47,2.61,8.55,8.95,8.82,27.92,1.2,55.81,2.94,83.71,4.42,1.39.07,2.81-.42,4.65-.72.96-12.82,2.01-25.4,2.83-37.99.98-14.98,8.15-24.46,21.97-30.58,19.2-8.5,38.99-10.78,59.41-9.44,13.24.87,20.04,7.59,23.21,21.54,3.56,15.67,7.41,31.3,10.27,47.11,1.43,7.9,5,9.13,12.1,8.48,21.99-2.01,44.04-3.53,66.09-4.7,6.28-.33,8.66-2.59,8.12-8.76-.26-2.97-.04-5.99-.04-8.99.03-26.57,4.7-33.38,30.94-36.83,22.2-2.92,44.74-3.65,67.16-4.21,13.52-.33,20.16,6.23,22.14,20.14,1.68,11.84,2.44,23.84,3.15,35.79.39,6.54,3.35,9.39,9.57,9.63,18.02.69,36.04,1.45,54.05,2.33,5.88.29,7.68-2.54,7.59-8.13-.18-10.49-.33-21,.23-31.46.76-14.17,7.56-21.42,21.54-21.96,22.43-.86,44.91-1.33,67.35-1.04,16.92.22,23.6,7.84,24.26,25.28.63,16.46,1.74,32.94,1.56,49.39-.11,9.75,4.02,11.29,12.49,11.92,33.74,2.52,67.44,5.67,101.1,9.21,14.99,1.58,23.55,12.01,26.62,27.08,9.15,44.99,8.02,89.93,2.59,135.27-2.84,23.72-2.43,47.86-3.27,71.82-3,86.09-5.68,172.2-8.96,258.28-1.22,32.03-13.21,61.58-25.37,90.32-15.85,37.43-34.84,73.5-52.78,110-2.93,5.95-6.75,11.78-11.32,16.51-42.9,44.42-86.65,87.64-142.16,116.37-30.4,15.73-61.52,26.55-96.07,25.77-22.46-.51-44.94-.19-67.4.03-4.3.04-9.13.36-12.8,2.32-29.2,15.53-60.12,21.2-92.88,19.14-30.25-1.91-60.03-4.88-88.56-16.78-13.18-5.5-27.48-8.51-41.5-11.61-50.04-11.07-93.75-37.37-139-59.8-9.96-4.94-17.22-15.21-26.71-21.47-56.45-37.29-86.05-95.61-112.99-154.39-25.46-55.56-45.54-113.72-66.87-171.16C.33,621.86-1.86,586.44,1.28,550.47c4.82-55.15,8.54-110.39,13.36-165.54,3.65-41.74.41-82.91-5.39-124.26-2.73-19.49-1.53-39.65-1.06-59.47.34-14.63,8.51-21.94,23.82-22.16,26.88-.39,53.77-.14,80.66-.22,2.9,0,5.8-.4,10.71-.76h0ZM174.95,207.91v1.93H48.99c-5.19,0-10.85-.85-10.49,7.44.71,16.07.9,32.17,2.02,48.21,1.72,24.63,6.75,49.35,5.59,73.79-3.51,73.96-8.77,147.86-14.49,221.69-2.42,31.32,1.25,61.21,12.2,90.36,13.02,34.63,26.34,69.15,39.15,103.86,22.89,61.99,49.64,122,94.63,170.99,17.18,18.71,36.32,37.4,58.1,49.5,42.48,23.61,85.52,47.24,133.78,57.72,14.02,3.05,28.27,6.24,41.45,11.75,33.32,13.92,68.26,15.8,103.17,14.15,15.93-.75,31.56-8.49,47.26-13.3,7.16-2.19,14.07-6.77,21.23-7.1,20.95-.98,42.1-1.87,62.94-.08,54.46,4.68,99.74-18.72,140.94-49.68,31.81-23.9,59.55-53.41,88.78-80.79,4.47-4.19,7.86-9.96,10.62-15.57,16.79-34.15,34.58-67.89,49.42-102.92,12.47-29.45,23.61-59.74,24.56-92.75,2.25-77.5,4.77-154.98,7.7-232.46,1.36-35.9,3.38-71.8,6.07-107.62,2.51-33.39,3.45-66.52-3.7-99.54-1.43-6.61-3.69-9.76-10.32-10.41-20.14-1.97-40.19-5.2-60.36-6.3-33.47-1.82-67.12-1.58-98.72-15.44-20.47-8.98-42.01-9.07-63.87-9.69-49.62-1.41-99.16-5.42-148.78-6.65-35.6-.88-71.42-.75-106.88,2.15-38.47,3.15-76.5,10.88-115.44,4.89-41.91-6.45-84.09-9.71-126.58-8.29-21.33.71-42.7.12-64.05.12l.03.04h0ZM434.06,186.46c-3.73-17.82-6.82-33.11-10.27-48.32-.39-1.7-3.06-4.36-4.24-4.15-12.51,2.29-25.8,3.23-36.95,8.64-4.37,2.12-4.26,14.5-5.53,22.32-.78,4.75-.89,9.8-.17,14.53.39,2.53,3.13,6.63,4.91,6.68,16.76.51,33.55.3,52.25.3ZM218.41,177.12c-2-12.95-3.34-24.69-5.96-36.13-.58-2.54-5.6-5.5-8.73-5.69-11.32-.69-22.74-.86-34.03.03-3.84.3-8.8,3.47-10.82,6.84-6.56,10.92-6.39,23.05-4.3,34.95h63.84ZM827.54,201.16c0-7.17.15-12.73-.03-18.28-.67-20.72-11.27-30.73-31.8-30.04-22.16.75-25.52,5-21.16,27.46.42,2.16,2.24,5.17,4.05,5.76,15.69,5.13,31.53,9.8,48.94,15.1h0ZM611.59,178.03v.64h8.79c24.45.03,24.8-.19,19.74-24.77-.55-2.66-5.04-6.49-7.57-6.39-14.97.59-29.94,1.9-44.82,3.69-2.79.33-6.82,3.44-7.53,6.04-4.19,15.36-.56,20.11,14.94,20.76,5.48.23,10.97.04,16.46.04h0Z"></path><path class="cls-1" d="M924.66,109.56c.8-11.89,1.43-21.7,2.12-31.49.96-13.56,1.66-27.14,3.06-40.65.95-9.17,5.08-16.46,15.69-16.63,8.64-.13,15.09,7.63,14.35,18.75-1.79,27.11-3.61,54.27-6.88,81.23-2.19,18.06-11.64,23.64-29.61,20.06-17.69-3.52-35.36-7.17-52.97-11.07-14.34-3.17-19.97-9.31-19.03-23.85.92-14.2,3.56-28.35,6.31-42.36,4.03-20.54,3.22-22.64-17.58-21.93-26.1.89-52.14,3.33-78.22,4.69-6.44.34-8.37,3.77-8.6,9.04-.43,9.91-.47,19.84-.82,29.76-.46,13.29-5.31,20.23-18.4,22.23-26.91,4.13-53.96,7.39-81.01,10.54-10.65,1.24-17.66-4.15-23.02-13.58-11.02-19.41-15.42-40.45-16.99-62.22-.69-9.6-4.54-12.77-14-11.27-15.62,2.47-31.35,4.29-47.05,6.2-7.1.86-9.83,4.3-9.92,11.65-.14,11.73-.77,23.56-2.57,35.13-2.57,16.43-10.59,22.61-27.01,23.32-18.38.8-36.74,2.43-55.12,2.7-17.7.26-23.54-4.58-28.24-21.73-2.62-9.55-4.75-19.28-6.42-29.04-1.12-6.55-3.16-9.36-10.74-8.48-22.25,2.6-44.64,3.98-66.9,6.53-3.05.35-7.53,4.26-8.1,7.16-1.83,9.33-1.92,18.98-3.08,28.46-2.1,17.2-8.73,24.32-25.99,25.87-18.31,1.64-36.72,2.57-55.11,2.83-15.01.21-21.51-6.31-22.82-21.1-1.23-13.91-2.63-27.84-2.88-41.78-.14-7.68-2.5-11-10.2-9.99-27.35,3.59-54.69,7.2-82.04,10.76-6.41.83-8.25,4.59-8.32,10.68-.12,10.64-.55,21.31-1.64,31.89-.93,9.07-5.8,16.8-14.78,18.85-21.8,4.98-43.72,10.28-65.89,12.5-17.87,1.79-25.06-4.91-31.07-21.99C6.99,93.62-2.3,76.64.52,57.05c.71-4.9,1.87-10.81,5.08-13.96,3.05-3,10.68-5.51,13.41-3.76,4.84,3.12,9.02,9.15,10.77,14.8,4.21,13.54,6.26,27.75,10.53,41.26,1.06,3.35,7.52,7.56,11,7.15,13.1-1.55,26.11-4.43,38.87-7.85,2.48-.66,5.04-5.88,5.26-9.15.68-10.25.37-20.57.24-30.86-.14-11.07,4.83-18.31,15.69-20.94,41.29-10,83.07-16.28,125.67-15.75,12.69.16,19.48,7.33,20.27,21.32.81,14.3,1.23,28.63,1.55,42.95.15,6.75,3.1,8.9,9.7,8.23,9.15-.94,18.47-.51,27.51-1.95,3.08-.49,7.44-4.59,7.92-7.56,1.86-11.59,2.44-23.38,3.4-35.1,1.1-13.44,6.83-18.37,20.46-19.33,28.57-2.01,57.16-4.06,85.64-7.05,25.36-2.66,33.17,2.5,38.02,27.84,1.52,7.94,3.12,15.87,4.49,23.84,1.05,6.12,4.31,8.93,10.65,8.36,12.47-1.12,25.02-1.56,37.37-3.44,2.73-.42,6.42-5.49,6.74-8.71,1.06-10.58.6-21.3,1.05-31.95.62-14.38,5.31-21.99,19.34-24.3,28.61-4.72,57.44-8.47,86.31-10.99,14.87-1.3,21.23,5.74,23.38,20.61,1.89,13.1,3.17,26.3,5.48,39.32,1.2,6.77,3.19,13.71,6.48,19.67,1.78,3.22,7.22,6.64,10.7,6.35,17.22-1.46,34.32-4.27,51.51-6.29,6.25-.73,7.31-4.22,7.77-9.71,1.02-12.39,2.1-24.86,4.59-37.01,2.14-10.4,9.72-16.31,20.62-16.77,38.22-1.6,76.44-3.51,114.68-4.35,21.24-.47,28.13,6.75,26.96,28.08-.86,15.66-3.6,31.28-6.48,46.73-1.87,10.04-.74,16.09,11.19,17.13,9.42.82,18.69,3.42,30.33,5.68v-.03h-.01Z"></path><path class="cls-1" d="M710.43,801.54c-39.85,3.42-79.63,8.23-119.55,9.97-80.91,3.52-161.87,6.21-242.84,7.35-20.21.29-40.46-7-60.8-10.04-22.14-3.3-44.36-6.71-66.67-8.13-13.97-.89-23.83-5.43-30.49-17.75-10.09-18.68-18.22-37.71-16.22-59.7,1.11-12.18,6.38-19.38,15.3-19.44,8.97-.06,13.82,7.17,15.58,19.25,1.87,12.87,4.64,25.77,8.84,38.04,1.38,4.04,8.12,8,12.96,8.84,27.12,4.68,54.38,8.56,81.64,12.36,18.16,2.53,36.37,5.94,54.63,6.41,97.71,2.54,195.03-5.46,292.41-11.75,29.41-11.38,60.64-2.49,90.66-8.03,11.91-2.2,18.88-6.6,18.7-19.54-.09-6.58.78-13.2,1.51-19.77,1.17-10.57,7.28-17.16,15.68-16.57,10.04.7,14.75,7.72,14.24,16.47-.91,15.71-2.2,31.66-6.03,46.82-1.55,6.12-9.39,13.33-15.74,15.08-20.71,5.72-43.49,5.86-64.59,10.17-.22-1.12,1,1.05.78-.07v.03h0Z"></path><path class="cls-1" d="M299.1,831.9c57.36,1.78,114.83,6.57,172.06,4.59,71.96-2.49,144.21-2.22,215.84-13.03,22.31-3.37,45.56-.84,68.37-.49,10.06.15,17.11,6.03,21.87,14.66,7.47,13.52,15.07,26.97,22.32,40.61,5.64,10.62,3.91,20.05-3.94,24.24-7.51,4.02-15.91.96-22.04-8.99-6.36-10.33-12.44-20.88-17.78-31.75-3.44-7-8.08-9.64-15.67-9.08-29.28,2.19-58.57,4.3-87.88,6.06-28.66,1.72-57.33,3.4-86.02,4.34-52.21,1.72-104.44,4-156.66,3.98-52.96-.02-105.92-2.33-158.87-4.18-9.93-.35-16.05,2.55-19.55,11.86-4.34,11.53-8.44,23.28-14.2,34.1-2.68,5.04-8.56,10.4-13.86,11.54-7.79,1.68-13.94-4.77-13.97-12.27-.03-9.6,1.2-19.82,4.7-28.67,4.55-11.52,11.95-21.91,17.94-32.88,5.3-9.7,13.39-14.17,24.36-14.12,20.99.1,41.98.03,62.97.03,0-.19.01-.38.02-.57v.02h0Z"></path><path class="cls-1" d="M703.74,367.63c19.55,4.23,40.25,5.73,58.41,13.3,33.47,13.96,54.38,40.21,56.99,77.33,3.06,43.45-12.38,78.44-52.05,100.29-9.98,5.49-20.06,10.81-30.23,15.94-25.41,12.81-52.54,12.64-79.86,9.8-5.36-.56-11.07-2.21-15.66-4.96-36.45-21.83-61.97-50.03-63.36-96.1-.87-28.78,6.69-53.35,22.65-76.35,5.72-8.24,12.43-14.01,23.14-14.86,4.87-.38,10.03-2.66,14.21-5.37,19.9-12.92,41.84-22.77,65.75-19.01.17-1.29-.17,1.29,0,0h0ZM700.63,400.2c-23.69.37-23.58.58-45.12,11.67-7.43,3.83-15.74,5.92-23.27,9.58-3.66,1.78-6.99,4.92-9.52,8.19-17.96,23.19-17.67,50.33-10.13,75.71,6.79,22.86,23.93,41.84,47.99,47.89,19.72,4.96,41.12,4.21,60.55-5.16,12.24-5.9,24.34-12.18,36.1-18.99,24.13-13.96,37.19-47.12,30.86-77.05-5.04-23.83-30.36-46.05-56.68-49.3-10.21-1.26-20.52-1.71-30.78-2.53h0Z"></path><path class="cls-1" d="M204.56,347.79c46.9.32,81.81,23.77,107.77,60.29,23.91,33.64,13.42,98.13-18.02,124.38-11.84,9.89-24.22,19.24-36.99,27.89-32.64,22.1-79.88,18.65-111.64-4.67-47.09-34.57-54.97-91.57-27.58-144.07,8.58-16.44,20.11-31.65,32.04-45.98,13.51-16.22,20.42-17.42,54.41-17.85h0ZM197.48,376.97c-13.59-3.93-27.16,7.57-37.87,24.83-4.26,6.86-9.13,13.37-12.98,20.45-11.77,21.66-17.09,44.69-11.24,69.07,10.44,43.48,71.24,72.39,110.01,40.41,9.06-7.48,19-13.9,28.02-21.42,20.48-17.06,29.2-63.41,13.58-85.09-19.54-27.11-45.25-46.31-89.53-48.26h.01Z"></path><path class="cls-1" d="M420.68,655.5c.27,2.75,5.09,6.93,8.08,7.21,13.17,1.2,26.48.76,39.67,1.79,10.56.83,14.19-3.19,14.34-13.65.6-42.24,1.82-84.48,2.89-126.71.12-4.76-.87-10.49,1.41-14.01,3.19-4.93,8.93-11.3,13.62-11.34,4.76-.04,10.23,6.33,14.11,10.96,1.97,2.35,1.49,7.05,1.51,10.68.11,20.95.55,41.92-.11,62.86-.82,26.07-2.3,52.12-4.03,78.15-1.69,25.41-8.72,32.29-34.16,32.75-20.97.38-41.96-.13-62.93-.8-15.08-.48-22.77-7.06-24.1-21.99-7.07-79.36-18.4-158.5-13.79-238.51.32-5.5,2.22-11.99,5.76-15.87,2.69-2.95,10.8-4.91,13.55-3.02,4.8,3.28,9.97,9.69,10.33,15.1,1.24,18.66,2.35,85.56,2.35,104.31"></path><path class="cls-1" d="M466.93,756.22c-42.09,4.55-83.69-5.4-125.25-15.5-13.79-3.35-18.91-9.99-19.12-26.76-.37-29.41-.14-58.82-.14-88.23,0-1.47.08-2.94.25-4.4,1.27-10.8,6.98-17.07,15.36-16.91,8.4.16,14.52,6.57,14.7,17.42.45,26.46.53,52.94.1,79.4-.13,8.2,2.88,11.02,10.61,13.38,51.11,15.64,103.56,11.6,155.73,11.24,8.28-.06,16.58-3.19,24.8-5.18,24.44-5.93,26.7-8.84,27.43-34.39.28-9.92.2-19.87,1.03-29.75.74-8.81,4.77-15.67,14.8-16.19,8.38-.43,15.5,6.37,15.01,16.9-.99,21.21-3.09,42.39-5.59,63.48-1.22,10.28-8.34,16.38-17.94,20.53-35.46,15.35-72.65,17.6-111.77,14.95h0Z"></path><path class="cls-1" d="M698.83,417.6c7.4-.14,12.07,7.75,8.55,14.26-.02.04-.05.09-.07.13-2.29,4.25-4.6,8.69-5.7,13.33-3.47,14.67,7.84,26.6,22.64,23.5,5.56-1.16,10.87-4.37,15.79-7.45.24-.15.47-.3.7-.45,5.73-3.83,13.55-.5,14.72,6.29.46,2.64.81,5.25.97,7.86.75,12.28-4.22,22.84-12.72,31.53-15.7,16.06-35.13,24.32-57.37,25.25-19.46.82-35.79-10.9-44.01-30.74-20.53-49.54,18.74-82.58,55.45-83.49.35,0,.69-.02,1.04-.02h.01ZM681.86,449.19c.24-8.09-8.74-4.4-14.09,1.68-5.01,5.69-11.11,14.11-11.52,20.81-1.05,17.21,8,34.5,20.48,39.11.98.36,2,.67,3.03.89,16.24,3.51,44.23-8.45,52.91-22.62.2-.32.11-.81.14-1.23-24.41,4.79-51.73-12.56-50.96-38.63h.01Z"></path><path class="cls-1" d="M218.82,403.24c4.4-.29,7.37,4.42,5.22,8.27-1.58,2.83-3.03,5.49-4.38,8.2-5.06,10.22-3.67,18.22,3.98,24.58,7.91,6.58,18.45,6.81,26.78.03h0c7.82-6.39,19.62-1.32,20.35,8.75,2.09,28.75-15.39,57.47-43.77,65.14-7.96,2.15-17.7,2.08-25.51-.43-24.65-7.93-39.88-25.8-44.43-51.12-5.6-31.16,18.63-59.41,52.33-62.69,3.08-.3,6.17-.52,9.42-.73h.01ZM198.19,427c-.02-.23-.05-1.22-.26-1.13-15.85,6.62-25.79,24.49-22.12,39.31,5.23,21.11,25.18,37.86,42.62,35.79,14.69-1.75,31.16-19.28,31.86-33.79,0-.2-.17-.37-.37-.35-34.68,2.64-48.84-9.04-51.73-39.82h0Z"></path></g></g></g></g></svg> 